<svg width="1500" height="1500" viewBox="0 0 1500 1500" fill="none" xmlns="http://www.w3.org/2000/svg">
<rect width="1500" height="1500" rx="750" fill="white"/>
<path d="M885.441 520.688L781.045 368H941.38L1045.77 520.688H885.441Z" fill="#0055FF"/>
<path d="M1206.11 520.688H1045.77L1254.56 825.973L1045.77 1131.35H1206.11L1414.9 825.973L1206.11 520.688Z" fill="#33CCFF"/>
<path d="M350.729 825.976L246.334 673.288H86L190.395 825.976L86 978.663H246.334L350.729 825.976Z" fill="#0055FF"/>
<path d="M827.614 948.817L932.008 796.129H771.675L667.281 948.817H827.614Z" fill="#0055FF"/>
<path d="M1064.01 902.318C1108.29 902.318 1144.18 866.42 1144.18 822.142C1144.18 777.862 1108.29 741.967 1064.01 741.967C1019.74 741.967 983.844 777.862 983.844 822.142C983.844 866.42 1019.74 902.318 1064.01 902.318Z" fill="#0055FF"/>
<path d="M719.859 520.688L615.465 368H455.13L559.526 520.688L350.736 825.973L559.526 1131.35H719.859L511.069 825.973L719.859 520.688Z" fill="#33CCFF"/>
</svg>
